<svg xmlns="http://www.w3.org/2000/svg" width="32" height="32" viewBox="0 0 32 32"><path fill="#161616" d="M23.2576963,6.53875 L31.443146,14.7241997 C31.6981208,14.9791745 31.8625914,15.2212188 31.9365579,15.4503337 C31.9787954,15.563247 32,15.6929624 32,15.8385816 C32,15.9831402 31.9791032,16.1120257 31.9373096,16.2252383 C31.864024,16.4538339 31.6992326,16.696877 31.443146,16.9529636 L31.443146,16.9529636 L23.2576963,25.1384133 C22.6291538,25.7669558 22.0791873,25.8455224 21.6077805,25.3741156 C21.1363736,24.9027087 21.2149402,24.3527422 21.8434827,23.7241997 L21.8434827,23.7241997 L28.728,16.838 L1.33333333,16.8385816 C0.44444,16.8385816 0,16.5052516 0,15.8385816 C0,15.1719116 0.44444,14.8385816 1.33333333,14.8385816 L28.728,14.838 L21.8434827,7.95296357 C21.2149402,7.32442106 21.1363736,6.77445462 21.6077805,6.30304774 C22.0791873,5.83164086 22.6291538,5.9102075 23.2576963,6.53875 Z" transform="matrix(-1 0 0 1 32 0)"/></svg>