<svg xmlns="http://www.w3.org/2000/svg" width="48" height="48" viewBox="0 0 48 48"><path fill="#FFF" d="M30.2770226,4.53875 L47.4624723,22.7241997 C47.8450976,23.106825 48.0239147,23.4603318 47.9989241,23.7847239 C47.9996542,23.8016507 48,23.8199865 48,23.8385816 L47.997898,23.9224969 C48.0099506,24.2386357 47.8305571,24.5821235 47.4597171,24.9529636 L47.4597171,24.9529636 L30.2742673,43.1384133 C29.6457248,43.7669558 29.0957584,43.8455224 28.6243515,43.3741156 C28.1529446,42.9027087 28.2315113,42.3527422 28.8600538,41.7241997 L28.8600538,41.7241997 L44.817,24.838 L1.33333333,24.8385816 C0.44444,24.8385816 0,24.5052516 0,23.8385816 C0,23.1719116 0.44444,22.8385816 1.33333333,22.8385816 L44.819,22.838 L28.862809,5.95296357 C28.2342665,5.32442106 28.1556999,4.77445462 28.6271068,4.30304774 C29.0985137,3.83164086 29.6484801,3.9102075 30.2770226,4.53875 Z"/></svg>