<svg xmlns="http://www.w3.org/2000/svg" width="32" height="32" viewBox="0 0 32 32"><path fill="#e9483f" d="M27.8104957,7.6864684 C27.9293396,7.85041717 28,8.05332041 28,8.27272727 L28,23.7272727 C28,24.2795575 27.5522847,24.7272727 27,24.7272727 L5,24.7272727 C4.44771525,24.7272727 4,24.2795575 4,23.7272727 L4,8.27272727 C4,8.20290619 4.00715565,8.1347564 4.0207736,8.06897125 L15.1127574,18.4318662 C15.3180263,18.637135 15.5179524,18.7386029 15.7125375,18.73627 C15.8968238,18.7581187 16.085576,18.6877242 16.2791581,18.523487 L27.6073204,7.94137644 C27.6932254,7.8554714 27.7609505,7.77050209 27.8104957,7.6864684 Z M26.161,7.2719912 L15.745,17.0019912 L5.33,7.2719912 L26.161,7.2719912 Z"/></svg>