<svg xmlns="http://www.w3.org/2000/svg" width="32" height="32" viewBox="0 0 32 32"><path fill="#161616" d="M27,4 C27.5522847,4 28,4.44771525 28,5 L28,27 C28,27.5522847 27.5522847,28 27,28 L5,28 C4.44771525,28 4,27.5522847 4,27 L4,5 C4,4.44771525 4.44771525,4 5,4 L27,4 Z M11.6428571,13.3630952 L8.25297619,13.3630952 L8.25297619,24.1904762 L11.6428571,24.1904762 L11.6428571,13.3630952 Z M20.1934524,13.110119 C19.4176533,13.110119 18.7514881,13.2787671 18.1949405,13.6160714 C17.6383929,13.9533757 17.2420662,14.3581295 17.0059524,14.8303571 L17.0059524,14.8303571 L16.9553571,14.8303571 L16.9553571,13.3630952 L13.7172619,13.3630952 L13.7172619,24.1904762 L17.1071429,24.1904762 L17.1071429,18.827381 L17.1121397,18.5525419 C17.1387898,17.8362951 17.2720411,17.2533069 17.5119048,16.8035714 C17.7817514,16.297619 18.3045581,16.0446429 19.0803571,16.0446429 C19.485119,16.0446429 19.8224233,16.128971 20.0922619,16.297619 C20.3621086,16.4662671 20.5391838,16.7192433 20.6235119,17.0565476 C20.70784,17.3938519 20.7668624,17.6889881 20.8005952,17.9419643 C20.8343281,18.1949405 20.8511905,18.5238095 20.8511905,18.9285714 L20.8511905,18.9285714 L20.8511905,24.1904762 L24.1904762,24.1904762 L24.1904762,18.2708333 L24.1873785,17.9311227 C24.1749879,17.2661578 24.1254252,16.6879298 24.0386905,16.1964286 C23.9375,15.6230105 23.7519895,15.0917686 23.4821429,14.6026786 C23.2123043,14.1135886 22.7991071,13.7425595 22.2425595,13.4895833 C21.6860119,13.2366071 21.0029843,13.110119 20.1934524,13.110119 Z M9.92261905,8 C9.38293381,8 8.92758152,8.19394571 8.55654762,8.58184524 C8.18551371,8.96974476 8,9.42509381 8,9.94791667 C8,10.4707395 8.18551371,10.9345238 8.55654762,11.3392857 C8.92758152,11.7103229 9.38293381,11.8958333 9.92261905,11.8958333 C10.4623043,11.8958333 10.9260894,11.7018876 11.3139881,11.3139881 C11.7018868,10.9260886 11.8958333,10.4707395 11.8958333,9.94791667 C11.8958333,9.42509381 11.7018868,8.96974476 11.3139881,8.58184524 C10.9260894,8.19394571 10.4623043,8 9.92261905,8 Z"/></svg>