<svg xmlns="http://www.w3.org/2000/svg" width="32" height="32" viewBox="0 0 32 32"><path fill="#161616" d="M30.6666667,23 C31.55556,23 32,23.33333 32,24 C32,24.66667 31.55556,25 30.6666667,25 L1.33333333,25 C0.44444,25 0,24.66667 0,24 C0,23.33333 0.44444,23 1.33333333,23 L30.6666667,23 Z M30.6666667,15 C31.55556,15 32,15.33333 32,16 C32,16.66667 31.55556,17 30.6666667,17 L1.33333333,17 C0.44444,17 0,16.66667 0,16 C0,15.33333 0.44444,15 1.33333333,15 L30.6666667,15 Z M30.6666667,7 C31.55556,7 32,7.33333 32,8 C32,8.66667 31.55556,9 30.6666667,9 L1.33333333,9 C0.44444,9 0,8.66667 0,8 C0,7.33333 0.44444,7 1.33333333,7 L30.6666667,7 Z"/></svg>