<svg xmlns="http://www.w3.org/2000/svg" width="32" height="32" viewBox="0 0 32 32"><path fill="#161616" d="M30.8592202,8.51484847 C31.1884213,9.10141485 30.9402674,9.60261243 30.1147511,10.0184563 L18.24,16 L30.1147511,21.9815437 C30.9402674,22.3973876 31.1884213,22.8985852 30.8592202,23.4851515 C30.5300191,24.0717179 29.952669,24.1570779 29.1271526,23.7412341 L16,17.128 L2.87284739,23.7412341 C2.04733103,24.1570779 1.46998095,24.0717179 1.14077982,23.4851515 C0.811578695,22.8985852 1.05973259,22.3973876 1.88524895,21.9815437 L13.759,16 L1.88524895,10.0184563 C1.05973259,9.60261243 0.811578695,9.10141485 1.14077982,8.51484847 C1.46998095,7.9282821 2.04733103,7.84292211 2.87284739,8.25876594 L16,14.871 L29.1271526,8.25876594 C29.952669,7.84292211 30.5300191,7.9282821 30.8592202,8.51484847 Z"/></svg>