<svg xmlns="http://www.w3.org/2000/svg" width="28" height="42" viewBox="0 0 28 42"><g fill="none" fill-rule="evenodd"><path fill="#FFF" fill-rule="nonzero" d="M-1.0658141e-14,28.1117624 L-1.0658141e-14,27.2431618 C0.695693137,27.2818561 1.38663766,27.1075997 1.98041554,26.7437005 C2.5189164,26.2715138 2.78779719,25.5635339 2.69821098,24.8537005 L2.69821098,3.69820565 C2.7873865,2.98860762 2.51855825,2.28100462 1.98041554,1.80884242 C1.38663766,1.44494321 0.695693137,1.27068683 -1.0658141e-14,1.30938113 L-1.0658141e-14,0.440780488 L9.00923473,0.440780488 L9.00923473,1.30938113 C8.31353237,1.27059118 7.62255966,1.44485467 7.02881918,1.80884242 C6.49067647,2.28100462 6.22184823,2.98860762 6.31102374,3.69820565 L6.31045364,26.0255547 L14.9278539,26.0265844 C15.7684462,26.0555387 16.5682399,25.6645774 17.0606895,24.9839953 C17.6652056,24.1041394 18.093706,23.1159872 18.3226309,22.0738695 L19.1497767,22.2908605 L18.0614984,26.6344734 L17.669786,28.1117624 L-1.0658141e-14,28.1117624 Z"/><polygon fill="#E9483F" fill-rule="nonzero" points="24.091 22.595 27.225 25.679 24.091 28.807 21 25.679"/></g></svg>